<?xml version="1.0" encoding="UTF-8"?>
<svg id="Layer_1" xmlns="http://www.w3.org/2000/svg" version="1.1" viewBox="0 0 50 50">
  <!-- Generator: Adobe Illustrator 29.2.1, SVG Export Plug-In . SVG Version: 2.1.0 Build 116)  -->
  <defs>
    <style>
      .st0 {
        fill: #592c82;
      }

      .st1 {
        fill: #f4b223;
      }
    </style>
  </defs>
  <path class="st1" d="M48.2,37.7c.2,0,.5.1.7.2-1.5,1.9-3.3,3.6-5.3,4.8l-1.2-.4,1.2-.7c1.7-1.1,3.2-2.4,4.6-3.9Z"/>
  <path class="st0" d="M48.2,37.7c-1.3,1.5-2.9,2.9-4.6,3.9l-1.2.7-1.1-.3.2.8-.4.2-2.1-1.2,1,1.8c-2.7,1.1-5.8,1.8-8,1.8-10.8,0-13.8-7.1-29.5-4-.1,0-.2,0-.4,0,5.2-3.9,8.4-5.6,10.1-6.4l4.6.2-3.2-.8h-.2s0,0,.1,0c0-.4-.1-1,0-1.4.4-.6.5-1.7.5-1.7,0,0-.4-2.3-.4-2.6.3-.1.6-.3.9-.4l1,.2,1.3.3h.6c0,.1.3.2.3.2h.2s0,0,.1,0h.1s.2,0,.2,0h.1s.3,0,.3,0h.5s1.1,0,1.1,0h2.2c0-.1-2.2-.5-2.2-.5l-1.1-.2h-.5c0,0-.3-.1-.3-.1h-.1s0,0,0,0h0s0,0,0,0h-.2c0,0-.3-.2-.3-.2l-.6-.3-1.2-.5-.5-.2c.9-3.4,3-12.8,3-12.8l3.8-2,1.6-6.6s4.6-2.1,6.3-2.4c1.6,1.5,3.9,5.3,3.9,5.3l4.1-1.8-4,4s-3.6-1.9-4.8-2.3c.8,2.2,2.6,6.2,2.6,6.2,0,0-2.1,2.8-2.5,3.6.3,1,3.9,8.3,3.9,8.3l1.4.3.2,2.7.9.9.2,1.4-.3.2-1.2.9-.6.5-.3.2h-.2c0,.1,0,.1,0,.2h0s0,0,0,0h0s0,0,0,0h-.2c0,0-.4.2-.4.2l-.8.3-1.6.5-3.3,1.1,3.4-.6,1.7-.3h.9c0-.1.4-.2.4-.2h.2s0,0,0,0h0s.2,0,.2,0h.2c0-.1.2-.2.2-.2l.3-.2.7-.4,1.4-.7.8-.4c1.2.8,3,1.9,4.3,2.7,2.7.9,3,1,6.6,2.1Z"/>
  <polygon class="st0" points="41.6 42.9 41.7 43.5 41.1 43.2 41.6 42.9"/>
  <path class="st1" d="M40,43.7l.5.9c-3,1.4-6,2.1-8.5,2.1-10.8,0-13.8-7.1-29.5-4-.5,0-.8-.3-.9-.6.2-.1.4-.3.6-.4.1,0,.3,0,.4,0,15.8-3.1,18.7,4,29.5,4s5.2-.7,8-1.8Z"/>
</svg>